<svg width="261" height="94" viewBox="0 0 261 94" fill="none" xmlns="http://www.w3.org/2000/svg">
<path fill-rule="evenodd" clip-rule="evenodd" d="M144.939 66.9858C142.687 66.9858 140.805 66.4585 139.294 65.4034C139.129 65.2883 138.968 65.1681 138.812 65.0435V66.3529H133.775V27.7773H139.525V44.303C140.936 43.3912 142.642 42.9353 144.645 42.9353C146.814 42.9353 148.702 43.4557 150.311 44.4965C151.92 45.5372 153.165 46.9648 154.046 48.7792C154.942 50.5795 155.389 52.64 155.389 54.9603C155.389 57.2389 154.949 59.2853 154.068 61.1C153.201 62.9141 151.983 64.3488 150.417 65.4034C148.85 66.4585 147.024 66.9858 144.939 66.9858ZM139.316 51.332C138.98 52.3726 138.812 53.582 138.812 54.9603C138.812 56.3387 138.98 57.5486 139.316 58.5891C139.651 59.6302 140.197 60.4385 140.952 61.0155C141.721 61.5921 142.743 61.8801 144.016 61.8801C145.247 61.8801 146.254 61.571 147.038 60.9522C147.821 60.3334 148.402 59.5035 148.779 58.4625C149.157 57.4078 149.346 56.2406 149.346 54.9603C149.346 53.6946 149.15 52.5415 148.758 51.5009C148.367 50.4458 147.758 49.609 146.933 48.9901C146.121 48.3572 145.079 48.0408 143.806 48.0408C142.617 48.0408 141.652 48.3291 140.911 48.9058C140.183 49.4824 139.651 50.291 139.316 51.332Z" fill="#B3B4B7"/>
<path d="M123.681 49.391C124.395 50.2208 124.752 51.3883 124.752 52.8928V66.3529H130.459V51.3743C130.459 48.8847 129.795 46.8734 128.466 45.3404C127.151 43.7933 125.199 43.0197 122.611 43.0197C121.1 43.0197 119.722 43.3573 118.477 44.0323C117.337 44.6445 116.407 45.4856 115.687 46.556C115.15 45.5846 114.408 44.7856 113.462 44.1589C112.329 43.3994 110.874 43.0197 109.097 43.0197C107.544 43.0197 106.138 43.3643 104.879 44.0535C103.928 44.5801 103.123 45.2505 102.466 46.0646V43.5682H97.4295V66.3529H103.179V52.5555C103.179 51.2476 103.536 50.1856 104.25 49.3699C104.977 48.5401 105.935 48.1252 107.124 48.1252C108.37 48.1252 109.342 48.5471 110.041 49.391C110.755 50.2208 111.112 51.3883 111.112 52.8928V66.3529H116.819V52.5555C116.819 51.6834 116.98 50.9168 117.302 50.256C117.638 49.5809 118.099 49.0604 118.687 48.6948C119.275 48.315 119.967 48.1252 120.765 48.1252C122.01 48.1252 122.982 48.5471 123.681 49.391Z" fill="#B3B4B7"/>
<path d="M76.98 66.1207C78.099 66.7254 79.547 67.028 81.324 67.028C83.548 67.028 85.388 66.5429 86.843 65.5723C87.5335 65.1164 88.142 64.5931 88.6685 64.0034V66.3529H93.705V43.5682H87.955V55.1292C87.955 56.5357 87.794 57.6748 87.4725 58.5469C87.1645 59.405 86.766 60.059 86.276 60.5088C85.7865 60.9452 85.262 61.2402 84.7025 61.3951C84.143 61.5499 83.618 61.6273 83.1285 61.6273C81.9115 61.6273 80.967 61.3528 80.2955 60.8044C79.638 60.256 79.1625 59.5739 78.8685 58.758C78.575 57.9422 78.4 57.1334 78.344 56.3316C78.288 55.5163 78.26 54.8482 78.26 54.3275V43.5682H72.4685V56.3527C72.4685 56.7328 72.496 57.3375 72.552 58.1674C72.608 58.9973 72.769 59.9182 73.035 60.9311C73.3005 61.9294 73.7415 62.893 74.357 63.8215C74.9865 64.7494 75.861 65.516 76.98 66.1207Z" fill="#B3B4B7"/>
<path d="M163.575 46.2687C163.343 46.575 163.133 46.897 162.945 47.2348V43.5683H157.909V66.353H163.658V54.7075C163.658 53.8354 163.778 53.0547 164.016 52.3656C164.254 51.6623 164.603 51.0576 165.064 50.5514C165.526 50.0309 166.093 49.616 166.764 49.3066C167.436 48.9832 168.184 48.7933 169.01 48.737C169.849 48.6667 170.583 48.73 171.213 48.9269V43.5683C170.527 43.4839 169.842 43.4698 169.156 43.5261C168.471 43.5683 167.806 43.6878 167.163 43.8847C166.519 44.0676 165.925 44.3278 165.38 44.6653C164.666 45.0872 164.064 45.6217 163.575 46.2687Z" fill="#B3B4B7"/>
<path fill-rule="evenodd" clip-rule="evenodd" d="M183.231 66.9858C180.909 66.9858 178.859 66.4866 177.083 65.4878C175.32 64.4754 173.935 63.0901 172.928 61.3317C171.934 59.5598 171.438 57.5345 171.438 55.2559C171.438 52.7666 171.927 50.6006 172.906 48.7581C173.885 46.9156 175.235 45.488 176.956 44.4754C178.677 43.4487 180.657 42.9353 182.895 42.9353C185.274 42.9353 187.295 43.4979 188.96 44.6231C190.625 45.7482 191.855 47.3305 192.653 49.3699C193.45 51.4094 193.73 53.8072 193.492 56.5638H177.579C177.757 57.9316 178.18 59.0425 178.845 59.8971C179.769 61.0507 181.119 61.6273 182.895 61.6273C184.015 61.6273 184.973 61.381 185.77 60.8888C186.568 60.3967 187.176 59.6865 187.596 58.758L193.303 60.4038C192.45 62.4853 191.1 64.1024 189.253 65.2556C187.421 66.4092 185.414 66.9858 183.231 66.9858ZM186.736 49.4543C187.223 50.1205 187.55 51.0701 187.717 52.3022H177.729C177.952 51.2501 178.324 50.385 178.845 49.7074C179.769 48.5119 181.203 47.9142 183.147 47.9142C184.812 47.9142 186.008 48.4276 186.736 49.4543Z" fill="#B3B4B7"/>
<path fill-rule="evenodd" clip-rule="evenodd" d="M218.934 66.0573C220.067 66.6761 221.445 66.9858 223.068 66.9858C225.026 66.9858 226.642 66.648 227.915 65.9729C228.93 65.4295 229.888 64.6242 230.79 63.556V66.3529H235.785V52.4289C235.785 51.3883 235.743 50.4458 235.659 49.602C235.575 48.7581 235.309 47.9142 234.861 47.0703C234.064 45.5513 232.889 44.4824 231.336 43.8636C229.783 43.2447 228.006 42.9353 226.006 42.9353C223.278 42.9353 221.123 43.526 219.542 44.7075C217.962 45.8889 216.884 47.4219 216.311 49.3066L221.473 50.952C221.837 49.9114 222.473 49.1871 223.383 48.7792C224.292 48.3713 225.166 48.1673 226.006 48.1673C227.517 48.1673 228.594 48.4838 229.237 49.1167C229.743 49.6137 230.05 50.3317 230.158 51.2712C229.192 51.4185 228.276 51.5582 227.412 51.6904C225.943 51.9015 224.628 52.1267 223.467 52.3655C222.305 52.6048 221.305 52.8792 220.466 53.1884C219.249 53.6383 218.276 54.2013 217.549 54.8764C216.835 55.5374 216.318 56.3035 215.996 57.1756C215.674 58.0477 215.513 59.0114 215.513 60.066C215.513 61.3317 215.8 62.4919 216.374 63.547C216.961 64.5875 217.815 65.4245 218.934 66.0573ZM226.929 61.9223C226.216 62.2883 225.334 62.4713 224.285 62.4713C223.627 62.4713 223.061 62.3727 222.585 62.1757C222.11 61.9786 221.739 61.6977 221.473 61.3317C221.221 60.9522 221.095 60.5018 221.095 59.9815C221.095 59.602 221.172 59.2572 221.326 58.948C221.494 58.6384 221.746 58.3574 222.082 58.104C222.431 57.8366 222.886 57.5908 223.446 57.3656C223.935 57.1826 224.502 57.0137 225.145 56.8594C225.789 56.7046 226.635 56.5357 227.684 56.3527C228.359 56.2266 229.166 56.0823 230.106 55.9209C230.093 56.3221 230.069 56.7755 230.035 57.2812C229.993 58.097 229.825 58.8143 229.531 59.4331C229.377 59.7563 229.083 60.1575 228.65 60.6355C228.23 61.1135 227.657 61.5428 226.929 61.9223Z" fill="#B3B4B7"/>
<path d="M196.552 27.1444V66.353H202.26V27.1444H196.552Z" fill="#B3B4B7"/>
<path d="M206.872 66.353V27.1444H212.58V66.353H206.872Z" fill="#B3B4B7"/>
<path fill-rule="evenodd" clip-rule="evenodd" d="M40.9682 43.7326H25.4682V50.5187C25.4682 60.6516 33.639 68.8663 43.7182 68.8663C53.7975 68.8663 61.9685 60.6516 61.9685 50.5187V43.7326H45.9682V32.9251C45.9682 28.622 42.4984 25.1337 38.2182 25.1337C33.938 25.1337 30.4682 28.622 30.4682 32.9251H35.4682C35.4682 31.3982 36.6995 30.1604 38.2182 30.1604C39.737 30.1604 40.9682 31.3982 40.9682 32.9251V43.7326ZM40.9682 48.7593V58.3101H45.9682V48.7593H56.9685V50.5187C56.9685 57.8758 51.036 63.8395 43.7182 63.8395C36.4005 63.8395 30.4682 57.8758 30.4682 50.5187V48.7593H40.9682Z" fill="#B3B4B7"/>
</svg>
