<svg width="261" height="94" viewBox="0 0 261 94" fill="none" xmlns="http://www.w3.org/2000/svg">
<path d="M136.431 46.3566C135.242 47.255 134.647 48.5642 134.647 50.2841V61.0273H126.717V39.9262H133.012V46.8895C133.313 44.9019 134.073 43.2996 135.292 42.0825C136.943 40.4653 139.323 39.6567 142.429 39.6567H143.47V44.9704H141.487C139.306 44.9704 137.621 45.4325 136.431 46.3566Z" fill="#B3B4B7"/>
<path fill-rule="evenodd" clip-rule="evenodd" d="M160.471 58.4473C160.811 57.9986 161.092 57.5034 161.313 56.9618V61.0273H167.608V48.0894C167.608 46.1385 167.112 44.5469 166.121 43.3147C165.13 42.0569 163.676 41.1199 161.759 40.5038C159.876 39.8877 157.546 39.5797 154.771 39.5797C153.812 39.5797 152.788 39.5926 151.697 39.6182C150.607 39.6439 149.549 39.6824 148.525 39.7337C147.501 39.785 146.609 39.8364 145.848 39.8877V45.086C146.873 45.0346 148.013 44.9833 149.269 44.9319C150.525 44.8806 151.747 44.8421 152.937 44.8164C154.126 44.7908 155.085 44.7779 155.811 44.7779C157.266 44.7779 158.323 45.0474 158.983 45.5865C159.645 46.1256 159.975 46.9342 159.975 48.0124V48.0894H155.068C152.655 48.0894 150.525 48.3332 148.674 48.821C146.823 49.283 145.386 50.0146 144.362 51.0158C143.338 51.9913 142.825 53.2491 142.825 54.7895C142.825 56.2011 143.238 57.4204 144.064 58.4473C144.89 59.4485 146.031 60.2185 147.484 60.7574C148.971 61.2968 150.69 61.5662 152.639 61.5662C154.523 61.5662 156.109 61.2968 157.398 60.7574C158.72 60.2185 159.744 59.4485 160.471 58.4473ZM159.182 55.6748C159.645 55.0846 159.909 54.2631 159.975 53.2106V51.5163H155.019C153.63 51.5163 152.556 51.7859 151.796 52.325C151.07 52.8384 150.706 53.5443 150.706 54.4428C150.706 55.2901 151.07 55.983 151.796 56.5219C152.556 57.0356 153.63 57.2919 155.019 57.2919C155.911 57.2919 156.703 57.1766 157.398 56.9454C158.124 56.6891 158.72 56.2656 159.182 55.6748Z" fill="#B3B4B7"/>
<path d="M184.052 61.7585C181.706 61.7585 179.657 61.4634 177.906 60.8732C176.188 60.2573 174.75 59.4353 173.593 58.4089C172.437 57.3821 171.578 56.2267 171.016 54.9435C170.454 53.6341 170.173 52.2864 170.173 50.9002V50.1686C170.173 48.731 170.471 47.3577 171.065 46.0485C171.661 44.7137 172.536 43.5328 173.692 42.5061C174.849 41.4792 176.287 40.6706 178.005 40.0802C179.756 39.4898 181.755 39.1946 184.002 39.1946C186.448 39.1946 188.612 39.5668 190.496 40.3112C192.379 41.03 193.883 42.044 195.006 43.3532C196.13 44.6623 196.757 46.164 196.89 47.8583H189.108C188.975 46.9085 188.48 46.1127 187.621 45.4709C186.794 44.8035 185.589 44.4698 184.002 44.4698C182.68 44.4698 181.574 44.7265 180.682 45.2399C179.822 45.7533 179.178 46.4593 178.748 47.3577C178.319 48.2562 178.104 49.3215 178.104 50.5537C178.104 51.6831 178.302 52.71 178.698 53.6341C179.095 54.5325 179.723 55.2386 180.582 55.7518C181.474 56.2398 182.631 56.4836 184.052 56.4836C185.11 56.4836 186.002 56.342 186.728 56.06C187.489 55.7518 188.083 55.3414 188.513 54.8277C188.975 54.2887 189.257 53.6726 189.356 52.9795H197.088C196.989 54.7249 196.361 56.2655 195.204 57.6001C194.048 58.9096 192.511 59.9359 190.595 60.6808C188.678 61.3995 186.498 61.7585 184.052 61.7585Z" fill="#B3B4B7"/>
<path fill-rule="evenodd" clip-rule="evenodd" d="M205.977 60.8344C207.761 61.4508 209.81 61.7585 212.123 61.7585C214.403 61.7585 216.418 61.4508 218.17 60.8344C219.921 60.2184 221.375 59.3588 222.532 58.2548C223.688 57.1509 224.465 55.8928 224.862 54.4812H217.575C217.245 55.1228 216.617 55.6622 215.692 56.0983C214.766 56.535 213.577 56.753 212.123 56.753C210.537 56.753 209.248 56.4962 208.257 55.983C207.265 55.4693 206.538 54.7506 206.076 53.8266C205.818 53.2969 205.631 52.7193 205.517 52.0938H225.357V50.0146C225.357 48.0893 224.829 46.3181 223.771 44.7009C222.713 43.0579 221.177 41.7359 219.161 40.7348C217.179 39.708 214.733 39.1946 211.825 39.1946C209.611 39.1946 207.629 39.5026 205.878 40.1187C204.159 40.7091 202.722 41.5178 201.565 42.5445C200.409 43.5714 199.517 44.7394 198.888 46.0485C198.294 47.332 197.996 48.6797 197.996 50.0916V50.8617C197.996 52.2222 198.294 53.5571 198.888 54.8665C199.517 56.1497 200.409 57.3176 201.565 58.3701C202.755 59.397 204.225 60.2184 205.977 60.8344ZM205.578 48.5899C205.702 48.0378 205.885 47.5372 206.125 47.0882C206.621 46.1384 207.348 45.4196 208.306 44.9319C209.264 44.4442 210.438 44.2003 211.825 44.2003C213.18 44.2003 214.304 44.4442 215.196 44.9319C216.121 45.3939 216.815 46.0742 217.278 46.9726C217.528 47.4591 217.711 47.9981 217.826 48.5899H205.578Z" fill="#B3B4B7"/>
<path d="M107.834 61.0273V38.4245H97.6724V32.9183H126.173V38.4245H115.962V61.0273H107.834Z" fill="#B3B4B7"/>
<path fill-rule="evenodd" clip-rule="evenodd" d="M60.6365 30.9864C49.3328 30.9864 40.1693 38.105 40.1693 46.8862C40.1693 55.6671 49.3328 62.786 60.6365 62.786C71.9403 62.786 81.1035 55.6671 81.1035 46.8862C81.1035 38.105 71.9403 30.9864 60.6365 30.9864ZM35.6211 46.8862C35.6211 36.1536 46.8209 27.4531 60.6365 27.4531C74.4518 27.4531 85.6516 36.1536 85.6516 46.8862C85.6516 57.6187 74.4518 66.3192 60.6365 66.3192C46.8209 66.3192 35.6211 57.6187 35.6211 46.8862Z" fill="#B3B4B7"/>
<path fill-rule="evenodd" clip-rule="evenodd" d="M73.1159 40.2978C73.7828 38.6665 71.7912 37.1343 69.6978 37.6679L55.4379 41.3027C54.6125 41.5131 53.9676 42.019 53.7047 42.6622L49.2862 53.4745C48.6196 55.1059 50.6111 56.6383 52.7045 56.1043L66.9643 52.4697C67.7897 52.2592 68.4346 51.7534 68.6975 51.1101L73.1159 40.2978ZM61.1985 49.4098C62.9927 49.4098 64.4472 48.2799 64.4472 46.8861C64.4472 45.4923 62.9927 44.3624 61.1985 44.3624C59.4043 44.3624 57.9497 45.4923 57.9497 46.8861C57.9497 48.2799 59.4043 49.4098 61.1985 49.4098Z" fill="#B3B4B7"/>
</svg>
