<svg width="261" height="94" viewBox="0 0 261 94" fill="none" xmlns="http://www.w3.org/2000/svg">
<path d="M82.0307 40.718C83.5043 41.9216 83.5043 43.873 82.0307 45.0766L55.2571 66.9439C53.7835 68.1474 51.3942 68.1474 49.9206 66.9439L33.0718 53.1829C31.5982 51.9789 31.5982 50.0277 33.0718 48.8242L59.8456 26.9569C61.3192 25.7534 63.7085 25.7534 65.1821 26.9569L82.0307 40.718Z" fill="#B3B4B7"/>
<path d="M88.3199 45.0766C89.7934 43.873 89.7934 41.9216 88.3199 40.718L75.9309 30.5995L80.3911 26.9569C81.8647 25.7534 84.2539 25.7534 85.7275 26.9569L102.576 40.718C104.05 41.9216 104.05 43.873 102.576 45.0766L75.8026 66.9439C74.329 68.1474 71.9398 68.1474 70.4656 66.9439L66.006 63.301L88.3199 45.0766Z" fill="#B3B4B7"/>
<path d="M132.121 48.4895C133.543 48.7062 134.712 49.287 135.629 50.232C136.545 51.1771 137.003 52.2599 137.003 53.4809C137.003 54.5832 136.665 55.5576 135.99 56.4047C135.339 57.2316 134.387 57.8809 133.134 58.3535C131.88 58.8261 130.397 59.0623 128.686 59.0623H117.802V38.4482H128.216C129.928 38.4482 131.398 38.6747 132.628 39.1275C133.881 39.5803 134.821 40.2104 135.448 41.0177C136.099 41.8249 136.424 42.7404 136.424 43.7642C136.424 44.9653 136.026 45.9694 135.231 46.7766C134.46 47.5839 133.423 48.1548 132.121 48.4895ZM122.864 46.9539H127.493C128.698 46.9539 129.626 46.7372 130.277 46.3041C130.928 45.8513 131.253 45.2114 131.253 44.3845C131.253 43.5575 130.928 42.9176 130.277 42.4648C129.626 42.0119 128.698 41.7855 127.493 41.7855H122.864V46.9539ZM127.963 55.6958C129.192 55.6958 130.145 55.4595 130.819 54.987C131.519 54.5144 131.868 53.8451 131.868 52.9785C131.868 52.0925 131.506 51.4037 130.783 50.9113C130.06 50.3994 129.084 50.1434 127.854 50.1434H122.864V55.6958H127.963Z" fill="#B3B4B7"/>
<path d="M148.486 59.3284C146.558 59.3284 144.822 58.9837 143.28 58.2944C141.737 57.5855 140.519 56.5916 139.627 55.3115C138.76 54.032 138.326 52.5552 138.326 50.8817C138.326 49.2082 138.772 47.7315 139.663 46.4517C140.58 45.172 141.821 44.1875 143.388 43.4984C144.955 42.7896 146.703 42.4352 148.631 42.4352C150.559 42.4352 152.307 42.7896 153.874 43.4984C155.441 44.1875 156.67 45.172 157.562 46.4517C158.479 47.7315 158.936 49.2082 158.936 50.8817C158.936 52.5552 158.467 54.032 157.526 55.3115C156.61 56.5916 155.357 57.5855 153.765 58.2944C152.199 58.9837 150.439 59.3284 148.486 59.3284ZM148.486 55.725C149.403 55.725 150.258 55.5478 151.054 55.1934C151.873 54.8194 152.524 54.2683 153.006 53.5399C153.489 52.811 153.73 51.925 153.73 50.8817C153.73 49.3263 153.223 48.1351 152.211 47.3082C151.223 46.4616 150.005 46.0383 148.559 46.0383C147.112 46.0383 145.895 46.4616 144.907 47.3082C143.942 48.1351 143.46 49.3263 143.46 50.8817C143.46 52.4371 143.93 53.638 144.871 54.4845C145.835 55.3115 147.04 55.725 148.486 55.725Z" fill="#B3B4B7"/>
<path d="M166.266 45.2409C166.917 44.3746 167.761 43.6953 168.797 43.2031C169.858 42.7109 171.063 42.4647 172.413 42.4647V46.8061H171.075C169.484 46.8061 168.279 47.1113 167.459 47.7217C166.664 48.332 166.266 49.3952 166.266 50.9113V59.0623H161.204V42.701H166.266V45.2409Z" fill="#B3B4B7"/>
<path d="M173.075 50.8227C173.075 49.1688 173.473 47.702 174.268 46.4222C175.088 45.1425 176.196 44.158 177.595 43.4689C178.993 42.7798 180.548 42.4352 182.259 42.4352C183.561 42.4352 184.802 42.6715 185.984 43.144C187.165 43.5968 188.106 44.2072 188.804 44.9751V37.2078H193.939V59.0623H188.804V56.6409C188.178 57.4479 187.298 58.0977 186.165 58.5897C185.031 59.0823 183.718 59.3284 182.223 59.3284C180.536 59.3284 178.993 58.974 177.595 58.2651C176.196 57.5563 175.088 56.5618 174.268 55.2823C173.473 53.9827 173.075 52.4962 173.075 50.8227ZM188.841 50.8817C188.841 49.8776 188.599 49.0212 188.117 48.3124C187.635 47.5838 186.984 47.0326 186.165 46.6585C185.345 46.2647 184.465 46.0678 183.525 46.0678C182.585 46.0678 181.717 46.2548 180.921 46.6289C180.126 47.003 179.475 47.5543 178.969 48.2828C178.487 48.9916 178.245 49.8382 178.245 50.8227C178.245 51.8074 178.487 52.6734 178.969 53.4218C179.475 54.1502 180.126 54.7111 180.921 55.1051C181.741 55.4985 182.609 55.6958 183.525 55.6958C184.465 55.6958 185.345 55.5088 186.165 55.1343C186.984 54.7409 187.635 54.1892 188.117 53.4809C188.599 52.752 188.841 51.8859 188.841 50.8817Z" fill="#B3B4B7"/>
<path d="M216.06 50.5273C216.06 51.118 216.011 51.6496 215.915 52.1222H201.27C201.391 53.3036 201.896 54.2287 202.789 54.898C203.681 55.5679 204.777 55.9022 206.079 55.9022C207.96 55.9022 209.297 55.2427 210.093 53.9236H215.553C214.975 55.4985 213.866 56.7981 212.226 57.8218C210.587 58.826 208.574 59.3284 206.187 59.3284C204.259 59.3284 202.523 58.9837 200.981 58.2944C199.462 57.5855 198.269 56.5916 197.401 55.3115C196.557 54.032 196.136 52.5552 196.136 50.8817C196.136 49.1885 196.557 47.702 197.401 46.4222C198.244 45.1424 199.426 44.158 200.944 43.4689C202.463 42.7797 204.211 42.4352 206.187 42.4352C208.092 42.4352 209.792 42.7699 211.286 43.4393C212.805 44.1087 213.974 45.0636 214.794 46.3041C215.638 47.5247 216.06 48.9325 216.06 50.5273ZM210.816 49.346C210.792 48.2828 210.322 47.4362 209.406 46.8061C208.49 46.1564 207.369 45.8315 206.043 45.8315C204.789 45.8315 203.729 46.1465 202.861 46.7766C202.017 47.3869 201.499 48.2434 201.306 49.346H210.816Z" fill="#B3B4B7"/>
<path d="M223.37 45.2409C224.021 44.3746 224.865 43.6953 225.901 43.2031C226.962 42.7109 228.167 42.4647 229.518 42.4647V46.8061H228.179C226.589 46.8061 225.383 47.1113 224.564 47.7217C223.768 48.332 223.37 49.3952 223.37 50.9113V59.0623H218.308V42.701H223.37V45.2409Z" fill="#B3B4B7"/>
</svg>
