<svg width="261" height="94" viewBox="0 0 261 94" fill="none" xmlns="http://www.w3.org/2000/svg">
<path d="M98.7167 66.464C94.8075 66.464 91.4512 65.8697 88.6479 64.6811C85.8445 63.4925 83.5543 61.9474 81.7778 60.0457C80.0405 58.144 78.7573 56.0725 77.9281 53.8312C77.0988 51.5898 76.6843 49.4334 76.6843 47.3619V46.2413C76.6843 43.9321 77.0988 41.6568 77.9281 39.4155C78.7967 37.1742 80.1194 35.1366 81.8961 33.3028C83.6734 31.469 85.9237 30.0088 88.6479 28.9221C91.412 27.8014 94.6696 27.2411 98.4207 27.2411C102.329 27.2411 105.725 27.8524 108.607 29.0749C111.529 30.2635 113.859 31.9614 115.596 34.1687C117.333 36.3422 118.38 38.8891 118.735 41.8096H110.266C109.95 40.1117 109.239 38.6854 108.134 37.5307C107.068 36.3422 105.705 35.4592 104.047 34.882C102.389 34.2707 100.513 33.965 98.4207 33.965C96.2886 33.965 94.3931 34.2877 92.735 34.9329C91.076 35.5441 89.6943 36.4271 88.5891 37.5816C87.4831 38.7363 86.6341 40.0947 86.0419 41.6568C85.4889 43.2189 85.2133 44.9508 85.2133 46.8526C85.2133 48.6863 85.4889 50.3843 86.0419 51.9465C86.6341 53.5085 87.5027 54.8839 88.6479 56.0725C89.793 57.2271 91.1951 58.127 92.8532 58.7723C94.5514 59.4174 96.5056 59.74 98.7167 59.74C101.954 59.74 104.679 59.0609 106.89 57.7025C109.14 56.3102 110.503 54.3745 110.976 51.8955H119.446C119.051 54.5443 118.005 56.9724 116.307 59.1798C114.609 61.3871 112.28 63.1529 109.318 64.4774C106.357 65.8018 102.823 66.464 98.7167 66.464Z" fill="#B3B4B7"/>
<path d="M122.93 65.4961V27.2411H131.162V42.5352C131.985 40.7925 133.15 39.4469 134.657 38.4986C136.315 37.4798 138.408 36.9704 140.935 36.9704H141.29C144.963 36.9704 147.746 38.0571 149.641 40.2305C151.537 42.4039 152.484 45.5621 152.484 49.7051V65.4961H144.251V49.0429C144.251 47.277 143.659 45.8847 142.475 44.8659C141.33 43.8472 139.81 43.3377 137.914 43.3377C135.9 43.3377 134.262 43.9151 132.998 45.0697C131.775 46.1904 131.162 47.6676 131.162 49.5013V65.4961H122.93Z" fill="#B3B4B7"/>
<path fill-rule="evenodd" clip-rule="evenodd" d="M177.859 60.1694V65.4961H184.374V48.3297C184.374 45.7488 183.801 43.6603 182.656 42.0643C181.551 40.4682 179.893 39.2966 177.681 38.5495C175.509 37.8024 172.766 37.4288 169.449 37.4288C168.383 37.4288 167.237 37.4458 166.014 37.4798C164.829 37.4798 163.664 37.5137 162.519 37.5816C161.374 37.6496 160.348 37.7175 159.439 37.7854V43.7962C160.545 43.7282 161.789 43.6773 163.171 43.6434C164.592 43.5755 165.994 43.5245 167.376 43.4906C168.758 43.4566 169.942 43.4396 170.93 43.4396C172.824 43.4396 174.226 43.8302 175.134 44.6112C176.043 45.3922 176.496 46.5809 176.496 48.1769V48.4316H169.922C167.08 48.4316 164.592 48.7542 162.46 49.3995C160.367 50.0447 158.729 51.0125 157.544 52.303C156.399 53.5934 155.827 55.2574 155.827 57.295C155.827 59.1628 156.301 60.7588 157.248 62.0832C158.235 63.4076 159.597 64.4264 161.335 65.1395C163.112 65.8527 165.165 66.2092 167.494 66.2092C169.745 66.2092 171.64 65.8697 173.18 65.1905C174.759 64.4773 175.983 63.4586 176.852 62.1341C177.259 61.5406 177.595 60.8857 177.859 60.1694ZM176.496 55.2574V52.6596H169.804C167.909 52.6596 166.448 53.0671 165.421 53.8821C164.434 54.6631 163.941 55.6819 163.941 56.9384C163.941 58.1949 164.434 59.2137 165.421 59.9947C166.448 60.7758 167.909 61.1664 169.804 61.1664C170.949 61.1664 171.996 60.9965 172.943 60.6569C173.93 60.2834 174.739 59.6721 175.372 58.8232C176.043 57.9402 176.418 56.7517 176.496 55.2574Z" fill="#B3B4B7"/>
<path d="M191.771 65.4961V37.4288H200.003V65.4961H191.771Z" fill="#B3B4B7"/>
<path d="M206.529 37.4288V65.4961H214.762V49.2467C214.762 47.4468 215.374 46.0205 216.598 44.9678C217.862 43.8811 219.5 43.3377 221.514 43.3377C223.489 43.3377 225.028 43.8641 226.134 44.9168C227.279 45.9696 227.851 47.3449 227.851 49.0429V65.4961H236.083V49.6542C236.083 45.4432 235.097 42.285 233.123 40.1795C231.148 38.0401 228.246 36.9704 224.416 36.9704H224.061C221.494 36.9704 219.343 37.4458 217.605 38.3967C215.907 39.3475 214.624 40.7738 213.756 42.6755C213.473 43.284 213.235 43.943 213.045 44.6524V37.4288H206.529Z" fill="#B3B4B7"/>
<path d="M24.9633 53.7827C24.9633 56.2682 27.3065 58.284 30.1969 58.284C33.0874 58.284 35.4306 56.2682 35.4306 53.7827C35.4306 51.9604 32.3583 50.246 32.3583 47.0308C32.3583 44.1372 35.4306 42.1013 35.4306 40.279C35.4306 37.7935 33.0874 35.7777 30.1969 35.7777C27.3065 35.7777 24.9633 37.7935 24.9633 40.279C24.9633 42.1013 28.0356 44.1372 28.0355 47.0308C28.0355 49.9245 24.9633 51.9604 24.9633 53.7827Z" fill="#B3B4B7"/>
<path d="M50.3831 26.1304C50.3831 23.6449 52.7262 21.6292 55.6166 21.6292C58.507 21.6292 60.8502 23.6449 60.8502 26.1304C60.8502 26.9131 60.2834 27.6759 59.6368 28.5462C58.7779 29.7023 57.778 31.048 57.778 32.8823C57.778 34.4956 58.733 35.8423 59.5781 37.034C60.2488 37.9797 60.8502 38.8279 60.8502 39.6341C60.8502 39.7422 60.8458 39.8494 60.8371 39.9556C60.8458 40.0618 60.8502 40.169 60.8502 40.2771C60.8502 41.0598 60.2834 41.8225 59.6368 42.6929C58.7779 43.8489 57.778 45.1947 57.778 47.0289C57.778 48.6422 58.733 49.989 59.5781 51.1806C60.2488 52.1263 60.8502 52.9745 60.8502 53.7808C60.8502 53.8889 60.8458 53.9961 60.8371 54.1023C60.8458 54.2085 60.8502 54.3157 60.8502 54.4238C60.8502 55.2302 60.2488 56.0783 59.5781 57.0239C58.733 58.2156 57.778 59.5624 57.778 61.1757C57.778 63.0099 58.7779 64.3557 59.6368 65.5117C60.2834 66.3821 60.8502 67.1449 60.8502 67.9275C60.8502 70.413 58.507 72.4291 55.6166 72.4291C52.7262 72.4291 50.3831 70.413 50.3831 67.9275C50.3831 67.1212 50.9845 66.2731 51.6551 65.3274C52.5003 64.1357 53.4553 62.789 53.4553 61.1757C53.4553 59.5624 52.5003 58.2156 51.6551 57.0239C50.9845 56.0783 50.3831 55.2302 50.3831 54.4238C50.3831 54.3158 50.3875 54.2085 50.3962 54.1024C50.3875 53.9962 50.3831 53.8889 50.3831 53.7808C50.3831 52.9745 50.9845 52.1263 51.6551 51.1806C52.5003 49.989 53.4553 48.6422 53.4553 47.0289C53.4553 45.4156 52.5003 44.0689 51.6551 42.8772C50.9845 41.9315 50.3831 41.0834 50.3831 40.2771C50.3831 40.169 50.3875 40.0618 50.3962 39.9556C50.3875 39.8494 50.3831 39.7422 50.3831 39.6341C50.3831 38.8279 50.9845 37.9797 51.6551 37.034C52.5003 35.8423 53.4553 34.4956 53.4553 32.8823C53.4553 31.2689 52.5003 29.9223 51.6551 28.7305C50.9845 27.7848 50.3831 26.9367 50.3831 26.1304Z" fill="#B3B4B7"/>
<path d="M42.9063 65.3565C40.0159 65.3565 37.6727 63.3407 37.6727 60.8552C37.6727 60.0489 38.2742 59.2008 38.9448 58.2551C39.7899 57.0634 40.7449 55.7167 40.7449 54.1033C40.7449 52.49 39.7899 51.1433 38.9448 49.9516C38.2742 49.0059 37.6727 48.1578 37.6727 47.3515C37.6727 47.2434 37.6771 47.1362 37.6859 47.03C37.6771 46.9238 37.6727 46.8166 37.6727 46.7085C37.6727 45.9021 38.2742 45.054 38.9448 44.1083C39.7899 42.9166 40.7449 41.5699 40.7449 39.9566C40.7449 38.3433 39.7899 36.9965 38.9448 35.8048C38.2742 34.8592 37.6727 34.0111 37.6727 33.2048C37.6727 30.7192 40.0159 28.7035 42.9063 28.7035C45.7967 28.7035 48.1399 30.7192 48.1399 33.2048C48.1399 33.9874 47.5732 34.7502 46.9265 35.6206C46.0676 36.7765 45.0677 38.1224 45.0677 39.9566C45.0677 41.5699 46.0227 42.9166 46.8678 44.1083C47.5384 45.054 48.1399 45.9021 48.1399 46.7085C48.1399 46.8165 48.1355 46.9238 48.1268 47.0299C48.1355 47.1361 48.1399 47.2434 48.1399 47.3515C48.1399 48.1578 47.5384 49.0059 46.8678 49.9516C46.0227 51.1433 45.0677 52.49 45.0677 54.1033C45.0677 55.9376 46.0676 57.2834 46.9265 58.4394C47.5732 59.3097 48.1399 60.0726 48.1399 60.8552C48.1399 63.3407 45.7967 65.3565 42.9063 65.3565Z" fill="#B3B4B7"/>
</svg>
