<svg width="261" height="94" viewBox="0 0 261 94" fill="none" xmlns="http://www.w3.org/2000/svg">
<path d="M142.751 57.9868V32.6105H148.512V57.9868H142.751Z" fill="#B3B4B7"/>
<path d="M93.9893 33.3124L106.17 57.9868H110.919L123.231 33.3124H116.855L108.616 50.6363L100.453 33.3124H93.9893Z" fill="#B3B4B7"/>
<path fill-rule="evenodd" clip-rule="evenodd" d="M124.091 57.1794C125.821 57.9517 127.756 58.3379 129.897 58.3379C132.036 58.3379 133.957 57.9517 135.657 57.1794C137.387 56.3842 138.749 55.3192 139.746 53.9855C140.743 52.6283 141.242 51.1192 141.242 49.4579C141.242 47.7965 140.743 46.3107 139.746 45.0003C138.749 43.6666 137.387 42.6136 135.657 41.8415C133.957 41.0459 132.021 40.6481 129.853 40.6481C127.742 40.6481 125.821 41.0459 124.091 41.8415C122.362 42.6136 120.999 43.6666 120.002 45.0003C119.005 46.3107 118.507 47.7965 118.507 49.4579C118.507 51.1192 119.005 52.6283 120.002 53.9855C121.028 55.3192 122.391 56.3842 124.091 57.1794ZM132.711 53.4941C131.89 53.8686 130.937 54.0561 129.853 54.0561C128.797 54.0561 127.859 53.8686 127.038 53.4941C126.217 53.0963 125.572 52.5582 125.103 51.8798C124.634 51.1776 124.4 50.3822 124.4 49.493C124.4 48.6038 124.634 47.82 125.103 47.1414C125.572 46.4628 126.217 45.9363 127.038 45.5619C127.859 45.1641 128.797 44.9652 129.853 44.9652C130.937 44.9652 131.89 45.1641 132.711 45.5619C133.531 45.9363 134.176 46.4628 134.645 47.1414C135.115 47.82 135.349 48.6038 135.349 49.493C135.349 50.3822 135.115 51.1776 134.645 51.8798C134.206 52.5582 133.561 53.0963 132.711 53.4941Z" fill="#B3B4B7"/>
<path d="M155.463 57.3903C156.928 58.0219 158.599 58.3379 160.476 58.3379C162.352 58.3379 164.009 58.0335 165.445 57.4253C166.911 56.7938 168.039 55.9163 168.831 54.7928C169.652 53.6699 170.062 52.3595 170.062 50.8616V41.0342H164.301V50.7565C164.301 51.8097 163.965 52.6283 163.29 53.2136C162.616 53.7985 161.678 54.0911 160.476 54.0911C159.684 54.0911 158.995 53.9621 158.409 53.705C157.823 53.4474 157.383 53.0729 157.09 52.5815C156.797 52.0668 156.65 51.4586 156.65 50.7565V41.0342H150.846V50.8616C150.846 52.3361 151.256 53.6349 152.077 54.7578C152.898 55.8812 154.026 56.7582 155.463 57.3903Z" fill="#B3B4B7"/>
<path d="M172.451 57.9868V41.0342H178.211V42.5051C178.726 42.1035 179.313 41.7653 179.97 41.4905C181.201 40.9523 182.594 40.6832 184.148 40.6832C185.614 40.6832 186.947 40.9523 188.149 41.4905C189.157 41.9219 189.989 42.5094 190.647 43.253C191.357 42.5293 192.225 41.9535 193.25 41.5256C194.541 40.964 195.977 40.6832 197.56 40.6832C199.143 40.6832 200.565 40.9523 201.825 41.4905C203.086 42.0053 204.082 42.7541 204.816 43.7368C205.548 44.7196 205.915 45.8896 205.915 47.2467V57.9868H200.155V47.9838C200.155 47.001 199.759 46.2406 198.967 45.7024C198.205 45.1408 197.252 44.86 196.108 44.86C195.376 44.86 194.687 44.9887 194.042 45.2461C193.426 45.4801 192.943 45.8311 192.591 46.299C192.239 46.767 192.063 47.3286 192.063 47.9838V57.9868H186.302V47.9838C186.302 47.001 185.907 46.2406 185.115 45.7024C184.353 45.1408 183.4 44.86 182.257 44.86C181.495 44.86 180.806 44.9887 180.19 45.2461C179.574 45.4801 179.091 45.8311 178.739 46.299C178.387 46.767 178.211 47.3286 178.211 47.9838V57.9868H172.451Z" fill="#B3B4B7"/>
<path fill-rule="evenodd" clip-rule="evenodd" d="M212.607 57.2145C214.336 57.9634 216.316 58.3379 218.544 58.3379C220.273 58.3379 221.871 58.092 223.336 57.6006C224.832 57.1093 226.092 56.3842 227.118 55.4249L223.732 52.7223C223.088 53.3071 222.326 53.7517 221.446 54.0561C220.566 54.3366 219.584 54.4768 218.5 54.4768C217.298 54.4768 216.242 54.2781 215.333 53.8803C214.425 53.4591 213.721 52.8742 213.222 52.1253C213.035 51.8168 212.885 51.4876 212.773 51.138L228.306 51.1075C228.423 50.7097 228.496 50.3588 228.525 50.0546C228.584 49.727 228.614 49.4111 228.614 49.1069C228.614 47.4923 228.159 46.0533 227.25 44.7898C226.371 43.5028 225.139 42.4966 223.557 41.7712C222.003 41.0224 220.2 40.6481 218.148 40.6481C216.066 40.6481 214.175 41.0459 212.475 41.8415C210.775 42.6136 209.426 43.6666 208.43 45.0003C207.462 46.3107 206.978 47.8082 206.978 49.493C206.978 51.201 207.477 52.7223 208.473 54.0561C209.5 55.3894 210.877 56.4427 212.607 57.2145ZM212.778 47.6976C212.881 47.3873 213.014 47.0966 213.178 46.8255C213.648 46.0767 214.307 45.5034 215.158 45.1057C216.007 44.6844 217.004 44.4739 218.148 44.4739C219.232 44.4739 220.141 44.6611 220.874 45.0354C221.636 45.3864 222.208 45.9012 222.589 46.5798C222.786 46.9065 222.944 47.2712 223.06 47.6738L212.778 47.6976Z" fill="#B3B4B7"/>
<path fill-rule="evenodd" clip-rule="evenodd" d="M58.5854 68.1805C73.3626 68.1805 85.3413 58.6189 85.3413 46.8241C85.3413 35.0294 73.3626 25.4679 58.5854 25.4679C43.8084 25.4679 31.8293 35.0294 31.8293 46.8241C31.8293 58.6189 43.8084 68.1805 58.5854 68.1805ZM69.6666 33.7524C69.9843 33.9668 70.167 34.2819 70.167 34.6138L70.1663 38.9045L70.167 39.1868L70.1663 39.2206V53.5835C70.1663 56.0779 67.6327 58.0996 64.5077 58.0996C61.3826 58.0996 58.8493 56.0779 58.8493 53.5835C58.8493 51.0887 61.3826 49.0667 64.5077 49.0667C65.5384 49.0667 66.5047 49.2867 67.3367 49.671V40.5196L53.1903 42.402V55.8416C53.1903 58.3359 50.657 60.3582 47.5319 60.3582C44.4068 60.3582 41.8735 58.3359 41.8735 55.8416C41.8735 53.3473 44.4068 51.325 47.5319 51.325C48.5626 51.325 49.5293 51.545 50.3611 51.9291L50.3617 41.445L50.3611 41.1627L50.3617 41.129V36.8721C50.3617 36.3203 50.8616 35.8492 51.5441 35.7584L68.5195 33.5001C68.9294 33.4455 69.349 33.5379 69.6666 33.7524Z" fill="#B3B4B7"/>
</svg>
