 <svg width="261" height="94" viewBox="0 0 261 94" fill="none" xmlns="http://www.w3.org/2000/svg">
<path d="M32.2634 61.3801H60.1474V72.8471C60.1474 75.6617 57.9763 77.9437 55.298 77.9437H37.1128C34.4346 77.9437 32.2634 75.6617 32.2634 72.8471V61.3801Z" fill="#B3B4B7"/>
<path fill-rule="evenodd" clip-rule="evenodd" d="M39.5219 16.3899C32.8824 17.8104 27.0321 21.512 22.744 26.6821C22.7441 26.6822 22.7438 26.682 22.744 26.6821C18.1024 32.2784 15.2908 39.5949 15.2908 47.6017V48.7131C15.2911 48.7126 15.2913 48.7121 15.2915 48.7116V49.8796C15.2915 50.1306 15.2915 50.256 15.294 50.3622C15.4017 55.1215 19.0474 58.9528 23.576 59.0661C23.677 59.0686 23.7964 59.0686 24.0351 59.0686H67.1653C67.404 59.0686 67.5234 59.0686 67.6244 59.0661C72.153 58.9528 75.7985 55.1215 75.9063 50.3622C75.9085 50.256 75.9085 50.1306 75.9085 49.8796V47.6017C75.9085 30.01 62.3392 15.7491 45.6002 15.7491C43.5187 15.7491 41.4855 15.9698 39.5219 16.3899ZM39.3715 19.0312C38.468 24.4068 34.0014 28.4901 28.6272 28.4901C27.3582 28.4901 26.1398 28.2624 25.007 27.8439C28.7673 23.5176 33.7456 20.3803 39.3715 19.0312ZM54.4057 19.7885C55.583 24.7856 59.8786 28.4901 64.9974 28.4901C65.5534 28.4901 66.0997 28.4464 66.6332 28.3621C63.3953 24.4558 59.1882 21.46 54.4057 19.7885ZM73.4033 45.3507C71.4825 43.5792 68.9649 42.5052 66.2087 42.5052C60.1827 42.5052 55.2976 47.639 55.2976 53.9721C55.2976 54.8479 55.391 55.7008 55.568 56.5204H67.1653C67.418 56.5204 67.5018 56.5203 67.5667 56.5186C70.8014 56.4377 73.4055 53.701 73.4825 50.3015C73.484 50.2334 73.484 50.1452 73.484 49.8796V47.6017C73.484 46.8443 73.4569 46.0937 73.4033 45.3507ZM35.63 56.5204C35.807 55.7008 35.9005 54.8479 35.9005 53.9721C35.9005 47.639 31.0154 42.5052 24.9894 42.5052C22.2343 42.5052 19.7177 43.5782 17.7974 45.3484C17.7436 46.0921 17.7163 46.8436 17.7163 47.6017V49.8796C17.7163 50.1452 17.7164 50.2334 17.718 50.3015C17.7949 53.701 20.399 56.4377 23.6337 56.5186C23.6986 56.5203 23.7824 56.5204 24.0351 56.5204H35.63ZM56.5108 37.4088C56.5108 43.7418 51.6257 48.8757 45.5996 48.8757C39.5736 48.8757 34.6886 43.7418 34.6886 37.4088C34.6886 31.0758 39.5736 25.9419 45.5996 25.9419C51.6257 25.9419 56.5108 31.0758 56.5108 37.4088Z" fill="#B3B4B7"/>
<path d="M94.0289 63.5196V25.9894H100.377V63.5196H94.0289Z" fill="#B3B4B7"/>
<path d="M116.338 64.1452C113.858 64.1452 111.659 63.5892 109.741 62.4771C107.823 61.3652 106.319 59.8014 105.228 57.7859C104.137 55.7704 103.591 53.4421 103.591 50.8011C103.591 48.1253 104.12 45.745 105.178 43.66C106.27 41.5749 107.757 39.959 109.642 38.8122C111.56 37.6308 113.808 37.04 116.388 37.04C118.801 37.04 120.934 37.596 122.786 38.708C124.637 39.82 126.075 41.349 127.101 43.295C128.159 45.2063 128.688 47.3434 128.688 49.7065C128.688 50.0887 128.672 50.4884 128.639 50.9054C128.639 51.3223 128.622 51.7567 128.589 52.2085H109.89C110.022 54.224 110.684 55.8051 111.874 56.9519C113.097 58.0987 114.569 58.6721 116.288 58.6721C117.578 58.6721 118.652 58.3767 119.512 57.7859C120.405 57.1604 121.067 56.3611 121.496 55.3881H127.944C127.481 57.0214 126.704 58.5157 125.613 59.8709C124.555 61.1914 123.232 62.2339 121.645 62.9984C120.091 63.7629 118.322 64.1452 116.338 64.1452ZM116.388 42.4611C114.833 42.4611 113.461 42.9302 112.271 43.8684C111.08 44.7719 110.32 46.162 109.99 48.0384H122.24C122.141 46.3357 121.545 44.9804 120.454 43.9727C119.364 42.965 118.008 42.4611 116.388 42.4611Z" fill="#B3B4B7"/>
<path d="M137.225 63.5196L128.198 37.6655H134.845L141.094 57.2125L147.343 37.6655H153.989L144.913 63.5196H137.225Z" fill="#B3B4B7"/>
<path d="M166.256 64.1452C163.776 64.1452 161.577 63.5892 159.659 62.4771C157.742 61.3652 156.237 59.8014 155.146 57.7859C154.055 55.7704 153.509 53.4421 153.509 50.8011C153.509 48.1253 154.038 45.745 155.096 43.66C156.188 41.5749 157.676 39.959 159.56 38.8122C161.478 37.6308 163.727 37.04 166.306 37.04C168.72 37.04 170.852 37.596 172.704 38.708C174.555 39.82 175.994 41.349 177.02 43.295C178.078 45.2063 178.606 47.3434 178.606 49.7065C178.606 50.0887 178.59 50.4884 178.557 50.9054C178.557 51.3223 178.54 51.7567 178.507 52.2085H159.808C159.941 54.224 160.602 55.8051 161.792 56.9519C163.016 58.0987 164.487 58.6721 166.206 58.6721C167.496 58.6721 168.571 58.3767 169.431 57.7859C170.324 57.1604 170.985 56.3611 171.415 55.3881H177.863C177.399 57.0214 176.622 58.5157 175.531 59.8709C174.473 61.1914 173.151 62.2339 171.564 62.9984C170.009 63.7629 168.24 64.1452 166.256 64.1452ZM166.306 42.4611C164.752 42.4611 163.379 42.9302 162.19 43.8684C160.999 44.7719 160.239 46.162 159.908 48.0384H172.159C172.059 46.3357 171.465 44.9804 170.373 43.9727C169.282 42.965 167.926 42.4611 166.306 42.4611Z" fill="#B3B4B7"/>
<path d="M181.466 63.5196V25.9894H187.814V63.5196H181.466Z" fill="#B3B4B7"/>
<path d="M201.047 64.1451C197.972 64.1451 195.592 63.1374 193.905 61.1219C192.251 59.1063 191.425 56.1526 191.425 52.2606V37.6655H197.724V51.635C197.724 53.859 198.154 55.5618 199.013 56.7433C199.873 57.9249 201.229 58.5156 203.081 58.5156C204.833 58.5156 206.271 57.8554 207.396 56.5348C208.553 55.2143 209.131 53.3726 209.131 51.0095V37.6655H215.48V63.5196H209.876L209.38 59.1411C208.619 60.6701 207.512 61.8863 206.057 62.7899C204.635 63.6934 202.965 64.1451 201.047 64.1451Z" fill="#B3B4B7"/>
<path d="M219.518 74.9872V37.6655H225.172L225.866 41.3664C226.66 40.2196 227.701 39.2119 228.991 38.3432C230.313 37.4744 232.017 37.04 234.099 37.04C236.414 37.04 238.481 37.6308 240.3 38.8122C242.118 39.9938 243.556 41.6097 244.615 43.66C245.673 45.7102 246.201 48.0384 246.201 50.6447C246.201 53.251 245.673 55.5792 244.615 57.6295C243.556 59.645 242.118 61.2436 240.3 62.425C238.481 63.5718 236.414 64.1452 234.099 64.1452C232.248 64.1452 230.628 63.7803 229.239 63.0505C227.85 62.3208 226.726 61.2957 225.866 59.9752V74.9872H219.518ZM232.761 58.3072C234.778 58.3072 236.448 57.5948 237.77 56.17C239.093 54.7452 239.754 52.9035 239.754 50.6447C239.754 48.386 239.093 46.5268 237.77 45.0673C236.448 43.6078 234.778 42.8781 232.761 42.8781C230.711 42.8781 229.024 43.6078 227.701 45.0673C226.412 46.492 225.767 48.3338 225.767 50.5926C225.767 52.8514 226.412 54.7105 227.701 56.17C229.024 57.5948 230.711 58.3072 232.761 58.3072Z" fill="#B3B4B7"/>
</svg>

